<svg width="35px" height="35px" data-name="Layer 1" xmlns="http://www.w3.org/2000/svg" viewBox="0 0 128 128"><path d="M42.685 74.689a1.75 1.75 0 0 1-1.75-1.75V41.772a1.75 1.75 0 1 1 3.5 0v31.167a1.75 1.75 0 0 1-1.75 1.75z" style="fill:#1ba4fc"/><ellipse cx="32.927" cy="72.939" rx="11.508" ry="6.935" style="fill:#1ba4fc"/><path style="fill:#2ec3fc" d="m65.049 49.816-24.114-6.04V29.188l24.114 6.039v14.589z"/><ellipse cx="98.573" cy="44.335" rx="11.508" ry="6.935" style="fill:#f9d12f"/><path d="M108.331 46.085a1.75 1.75 0 0 1-1.75-1.75V9.5a1.75 1.75 0 1 1 3.5 0v34.835a1.75 1.75 0 0 1-1.75 1.75z" style="fill:#f9d12f"/><ellipse cx="55.669" cy="111.565" rx="11.508" ry="6.935" style="fill:#ec4d85"/><path d="M65.428 113.315a1.75 1.75 0 0 1-1.75-1.75V80.4a1.75 1.75 0 1 1 3.5 0v31.167a1.75 1.75 0 0 1-1.75 1.748z" style="fill:#ec4d85"/><ellipse cx="86.573" cy="111.565" rx="11.508" ry="6.935" style="fill:#ec4d85"/><path d="M96.331 113.315a1.75 1.75 0 0 1-1.75-1.75V80.4a1.75 1.75 0 1 1 3.5 0v31.167a1.75 1.75 0 0 1-1.75 1.748z" style="fill:#ec4d85"/><path style="fill:#1ba4fc" d="M65.049 35.227v14.589l-3.491-.874V34.353l3.491.874z"/><path style="fill:#fd748c" d="M98.081 88.813 63.678 82.5V67.911l34.403 6.313v14.589z"/><path style="fill:#ec4d85" d="M94.581 88.17V73.581l3.5.643v14.589l-3.5-.643z"/></svg>